<?xml version="1.0" standalone="no"?>
<!DOCTYPE svg PUBLIC "-//W3C//DTD SVG 20010904//EN"
 "http://www.w3.org/TR/2001/REC-SVG-20010904/DTD/svg10.dtd">
<svg version="1.0" xmlns="http://www.w3.org/2000/svg"
 width="1024.000000pt" height="1024.000000pt" viewBox="0 0 1024.000000 1024.000000"
 preserveAspectRatio="xMidYMid meet">

<g transform="translate(0.000000,1024.000000) scale(0.100000,-0.100000)"
fill="#000000" stroke="none">
<path d="M3410 8454 c-151 -40 -283 -178 -325 -339 -13 -52 -15 -254 -15
-1665 0 -1359 2 -1613 15 -1659 48 -182 191 -318 369 -350 79 -15 3221 -15
3320 -1 182 27 333 164 381 345 13 52 15 254 15 1660 0 1404 -2 1608 -15 1660
-46 178 -170 305 -340 350 -87 22 -3320 22 -3405 -1z m3372 -194 c56 -16 117
-68 152 -130 l31 -55 0 -1620 0 -1620 -27 -51 c-30 -56 -84 -109 -134 -130
-45 -19 -3294 -21 -3356 -2 -51 15 -126 82 -149 133 -18 38 -19 110 -19 1666
l0 1625 26 52 c14 29 42 65 62 82 76 62 -36 58 1747 59 1094 1 1642 -3 1667
-9z"/>
<path d="M4662 7781 c-172 -63 -272 -212 -272 -408 l0 -72 -259 -3 -259 -3
-43 -30 c-24 -17 -57 -50 -74 -74 l-30 -43 -3 -384 -3 -384 601 0 600 0 0 50
c0 111 30 130 204 130 124 0 126 0 158 -29 28 -24 32 -36 36 -90 l4 -61 602 2
601 3 3 355 c3 398 0 418 -65 485 -69 71 -87 75 -365 75 l-246 0 -4 103 c-3
90 -7 110 -35 169 -40 85 -106 151 -191 191 l-67 32 -420 2 c-393 3 -423 1
-473 -16z m856 -197 c43 -18 88 -58 108 -97 8 -15 17 -63 21 -107 l6 -80 -527
0 -526 0 0 70 c0 110 35 174 115 211 37 17 71 19 403 19 306 0 368 -2 400 -16z"/>
<path d="M3720 5773 c0 -402 1 -418 21 -460 25 -53 86 -106 138 -121 52 -16
2428 -17 2484 -1 47 13 111 69 140 123 21 40 22 52 25 459 l3 417 -604 0 -605
0 -4 -66 c-4 -58 -8 -70 -32 -90 -26 -23 -34 -24 -167 -24 l-141 0 -29 29
c-26 26 -29 36 -29 90 l0 61 -600 0 -600 0 0 -417z"/>
<path d="M1114 3621 c-162 -46 -273 -157 -326 -325 -28 -88 -35 -287 -14 -386
34 -160 130 -297 254 -359 99 -50 171 -64 292 -58 158 7 254 49 349 152 46 50
96 147 107 208 l6 37 -120 0 -120 0 -12 -34 c-15 -46 -74 -113 -122 -137 -89
-45 -207 -31 -284 35 -49 41 -97 130 -114 208 -20 89 -9 242 22 309 54 118
136 172 259 171 120 -1 206 -56 250 -159 l19 -44 111 3 111 3 -6 44 c-9 68
-62 165 -121 220 -57 54 -122 90 -204 115 -75 22 -255 21 -337 -3z"/>
<path d="M5980 3065 l0 -565 120 0 120 0 0 235 0 235 225 0 225 0 0 95 0 95
-230 0 -230 0 0 140 0 140 255 0 255 0 0 95 0 95 -370 0 -370 0 0 -565z"/>
<path d="M6890 3065 l0 -565 115 0 115 0 0 565 0 565 -115 0 -115 0 0 -565z"/>
<path d="M2220 3339 c-115 -20 -215 -90 -260 -185 -11 -26 -20 -48 -18 -50 2
-1 46 -7 98 -13 84 -9 96 -8 105 7 36 58 104 88 182 79 77 -8 114 -51 99 -112
-9 -37 -53 -54 -182 -71 -147 -19 -217 -45 -269 -98 -122 -126 -64 -335 110
-393 105 -35 236 -13 313 53 l41 35 3 -43 3 -43 110 -3 110 -3 -3 308 c-2 185
-7 322 -14 343 -6 19 -24 54 -40 77 -35 52 -128 100 -219 113 -74 11 -95 11
-169 -1z m210 -525 c0 -63 -2 -68 -38 -104 -90 -91 -252 -69 -252 34 0 53 39
92 103 105 52 11 151 28 175 30 8 1 12 -18 12 -65z"/>
<path d="M3205 3336 c-29 -13 -72 -55 -107 -106 -17 -25 -17 -24 -17 43 l-1
67 -115 0 -115 0 0 -420 0 -420 115 0 115 0 0 255 c0 284 4 304 62 348 44 34
124 52 172 39 l35 -10 6 46 c4 26 10 71 14 100 8 51 7 54 -16 63 -35 13 -113
10 -148 -5z"/>
<path d="M3730 3337 c-187 -54 -290 -202 -290 -417 0 -191 89 -343 238 -401
49 -20 75 -23 182 -23 106 0 134 3 181 22 95 38 166 114 193 208 6 20 2 22
-100 28 l-107 8 -25 -31 c-35 -46 -72 -61 -145 -61 -50 0 -72 5 -98 23 -33 22
-71 85 -83 140 l-6 27 290 0 291 0 -6 68 c-15 166 -49 256 -123 323 -71 66
-139 92 -251 96 -59 2 -113 -2 -141 -10z m200 -179 c48 -25 75 -62 85 -120 l7
-38 -172 0 -172 0 6 32 c16 79 92 147 166 148 20 0 56 -10 80 -22z"/>
<path d="M4650 3334 c-179 -48 -280 -200 -280 -418 0 -104 16 -172 56 -246 35
-65 81 -105 162 -143 114 -53 297 -50 412 8 59 30 118 88 141 139 33 72 32 73
-87 81 l-107 7 -25 -32 c-58 -74 -190 -82 -261 -17 -28 26 -60 92 -61 125 l0
22 285 0 285 0 0 61 c0 142 -59 285 -146 352 -93 71 -244 96 -374 61z m206
-175 c46 -22 84 -82 84 -132 l0 -27 -163 0 c-90 0 -166 3 -170 6 -10 10 23 88
51 118 55 58 126 71 198 35z"/>
<path d="M5665 3336 c-29 -13 -72 -55 -107 -106 -17 -25 -17 -24 -17 43 l-1
67 -115 0 -115 0 0 -420 0 -420 115 0 115 0 0 248 c0 138 5 263 10 284 21 75
139 133 225 109 19 -5 35 -9 35 -8 1 1 7 46 14 100 l13 99 -24 9 c-35 13 -113
10 -148 -5z"/>
<path d="M7560 3336 c-76 -22 -125 -52 -178 -110 -70 -78 -94 -143 -100 -277
-7 -171 30 -274 129 -363 78 -70 141 -91 279 -91 110 0 118 1 181 32 163 81
244 247 220 455 -19 169 -77 260 -207 324 -69 35 -82 38 -177 40 -64 2 -119
-1 -147 -10z m241 -214 c48 -54 63 -117 57 -231 -8 -140 -58 -209 -159 -219
-67 -6 -128 30 -161 95 -20 41 -23 63 -23 153 0 92 3 111 25 155 37 74 78 98
159 93 61 -4 66 -6 102 -46z"/>
<path d="M8192 3323 c3 -10 56 -199 119 -420 l114 -403 125 0 126 0 12 48 c61
233 136 482 142 471 7 -13 103 -358 131 -471 l11 -48 124 0 123 0 20 68 c85
286 221 757 221 764 0 4 -52 8 -115 8 l-115 0 -7 -27 c-3 -16 -35 -143 -69
-283 -34 -140 -65 -248 -68 -240 -3 8 -39 134 -79 280 l-74 265 -110 3 -110 3
-17 -63 c-74 -272 -139 -498 -142 -495 -2 2 -31 120 -64 263 -34 142 -63 267
-66 277 -5 15 -19 17 -121 17 -105 0 -115 -2 -111 -17z"/>
</g>
</svg>
